<?xml version="1.0" encoding="UTF-8" standalone="no"?>
<!DOCTYPE svg PUBLIC "-//W3C//DTD SVG 1.1//EN" "http://www.w3.org/Graphics/SVG/1.1/DTD/svg11.dtd">
<svg xmlns="http://www.w3.org/2000/svg">
<metadata>Generated by Fontastic.me</metadata>
<defs>
<font id="untitled-font-3" horiz-adv-x="512">
<font-face font-family="untitled-font-3" units-per-em="512" ascent="480" descent="-32"/>
<missing-glyph horiz-adv-x="512"/>

<glyph glyph-name="icon-2" unicode="a" d="M112 203c-35 0-64-29-64-64 0-35 29-63 64-63 34 0 63 28 63 63 0 35-29 64-63 64z m0-113c-27 0-49 22-49 48 0 27 22 48 49 48 26 0 48-21 48-48 1-26-22-48-48-48z m384 107l-13 83c-2 15-15 26-30 26l-58 0-34 133c-1 5 0 12 5 16l16 16c3 3 3 8 0 10-3 3-8 3-10 0l-17-16c-8-8-11-19-8-30l32-128-30 0-35 129 7 0c4 0 7 3 7 7 0 4-3 8-7 8l-153 0c-17 0-32-15-32-32l0-129-76 0c-20 0-37-16-38-36l-6-58c-10-17-16-37-16-58 0-61 50-111 112-111 56 0 103 42 110 96l68 0c7-54 54-96 110-96 62 0 112 50 112 111 0 22-6 42-16 59z m-44 95c8 0 15-6 16-14l9-58c-20 20-47 31-77 31-12 0-23-2-34-5l-13 47 99 0z m-108-26l-100 0c-4 0-8 1-13 3l0 143c0 4-3 7-7 7-4 0-7-3-7-7l0-130-13 11c-7 6-11 15-11 24l0 119 106 0z m-192 154c0 9 7 16 16 16l8 0 0-118c0-14 6-27 18-36l24-21c7-6 16-9 26-9l104 0 3-12c-7-4-14-9-20-14-1 0-2 0-2 0l-145 0c-1 0-2 0-2 0-9 7-19 14-29 18l0 176z m-92-145l76 0 0-27c-8 2-16 3-24 3-31 0-59-12-79-33l3 35c2 13 12 22 24 22z m52-233c-54 0-97 43-97 96 0 53 43 96 97 96 53 0 96-43 96-96 1-52-43-96-96-96z m111 96c0 29-10 53-26 73l118 0c-16-20-26-45-26-73z m177-96c-53 0-96 43-96 96 0 53 43 96 96 96 54 0 97-43 97-96 0-52-43-96-97-96z m0 161c-34 0-63-29-63-64 0-35 29-63 63-63 35 0 64 28 64 63 0 35-29 64-64 64z m0-113c-26 0-48 22-48 48 0 27 22 48 48 48 27 0 49-21 49-48 0-26-22-48-49-48z"/>
<glyph glyph-name="icon-14" unicode="b" d="M509 361l2 99c0 6-4 10-9 11l-112 30c0 0-1 0-1 0 0 0-2 0-2 0 0 0-1 0-1 0 0 0-1 0-1 0l-147-50-61-7c-3 0-5-1-7-3l-162-148c-2-2-5-5-3-9l5-62-9-132c0 0 0-2 0-2 0 0 0-1 0-1 0 0 0-1 0-1 0 0 0-1 0-1 0 0 0-1 1-1 0 0 0 0 1-1 0 0 0 0 2-1 0 0 1-2 1-2l107-66c0 0 1 0 1 0 0 0 2 0 2 0 0 0 1 0 1 0 0 0 1 0 1 0 0 0 1 0 1 0l147 11c0 0 1 0 1 0 0 0 1 0 1 0 0 0 0 0 2 0 0 0 0 0 1 0 0 0 0 0 1 0l232 325c0 0 0 0 0 1 0 0 0 1 0 1 5 8 5 9 5 9z m-23 14l-15 2c-7 1-12-3-13-10-2-7 3-12 10-14l9 0-213-299-49 49 65 65c1 1 2 2 2 3l53 133 50 64 44-7c1 0 1 0 3 0 5 0 10 5 11 11 1 6-4 12-10 13l-41 6 6 84 89-24z m-455-283l148 148 2-7c1-4 6-8 12-8 1 0 2 0 3 0 6 3 9 8 8 15l-5 15 107 36-44-110-32-31-15 51c-2 5-8 9-14 7-6-2-10-7-8-14l19-64-94-94z m168-6l41-41-89-8z m-15 335l38 5-16-37-79-66c-5-5-6-12-1-16 2-2 5-5 9-5 2 0 5 2 7 3l81 68c1 1 2 2 4 4l22 53 126 42-6-88-51-66-137-46c0 0 0 0-1 0 0 0 0 0-1 0 0 0 0 0-1 0 0 0-1 0-1-1l-151-152 7 96 78 65c5 4 6 11 1 16-4 4-11 5-16 1l-64-53-4 36z"/>
<glyph glyph-name="icon-1" unicode="c" d="M424 360c-20 0-39-7-55-20l0 28-15 0 0-29c-16 14-37 21-58 21-14 0-28-4-41-10-11 5-25 8-38 8l0 0 0 17-55 0 0 40-16 0 0-40-57 0 0-17c-49 0-89-38-89-86l0-24c0-83 69-152 152-152 39 0 77 14 105 40 27-25 63-40 103-40 84 0 152 68 152 151l0 24c0 49-39 89-88 89z m-224 0l0-2-33-8 9-35-22 15-23-15-1 0 8 35-33 8 0 0 0 0 0 2z m-144-208c-27 26-41 60-41 97l0 24c0 39 33 71 74 71l11 0 19-5-6-28 15-16 25 17 25-17 15 16-7 28 19 4 12 0c8 0 16-1 23-4-20-16-32-40-32-67l0-24c0-38 14-73 38-100-25-24-59-36-94-36-36 0-70 14-96 40z m441 96c0-75-62-136-137-136-75 0-137 61-137 136l0 24c0 40 33 73 73 73 23 0 45-11 58-30l6-8 6 8c14 19 35 30 57 30 40 0 73-33 73-73l0-24z m-202 80c-29-1-53-27-54-57 0-5-3-30 4-58 7-29 28-67 81-87 2-1 5-2 7-2 3 0 8 2 11 4 5 4 9 10 9 16l0 40c0 13-11 23-24 23-4 0-8 4-8 8l0 16c0 5 4 8 8 8 13 0 24 11 24 24l0 8c0 15-6 29-17 40-11 12-25 17-41 17z m42-64c0-4-3-8-8-8-13 0-23-11-23-23l0-16c0-14 11-24 23-24 5 0 8-4 8-8l0-40c0-2-1-3-2-4-1-1-2-1-4-1-37 14-61 39-71 77-7 27-3 52-3 52l0 2c0 22 17 41 38 42 1 0 1 0 2 0 10 0 20-4 28-12 8-7 12-17 12-28z m89 64c-15 0-29-5-40-16-11-10-17-25-17-40l0-8c0-13 11-23 24-23 4 0 8-4 8-8l0-16c0-5-4-9-8-9-13 0-24-11-24-23l0-40c0-7 3-13 9-16 4-2 7-4 11-4 2 0 5 1 7 2 53 19 73 57 81 87 7 28 4 53 4 57 0 30-25 56-55 57z m39-59c0 0 4-24-3-52-10-37-34-63-72-76-2-1-3 0-4 1-1 1-2 1-2 4l0 39c0 4 4 8 8 8 13 0 23 11 23 24l0 16c0 13-11 23-23 23-4 0-8 4-8 8l0 8c0 11 4 21 12 29 8 7 18 11 28 11 1 0 1 0 2 0 21 0 38-19 38-42z m-157 33l10-12-11-10-11 12z m-17-49l-15 6 6 14 15-6z m-1-32l-16 0-1 15 16 1z m4-15l7-14-15-7-7 13z m7-39l10 13 12-10-9-12z m110 13l9-13-12-9-10 12z m17 26l14-7-7-14-14 8z m5 31l16-1 0-15-16 0z m-9 30l15 6 6-14-15-6z m2 25l-10-12-12 10 11 12z m-392-36c0-28 8-54 25-77l13 10c-15 19-23 42-23 67z m41-94c5-5 11-10 19-14l8 13c-6 4-12 8-16 12z"/>
<glyph glyph-name="icon-3" unicode="e" d="M221 246l-55 0 0 247 33 0c4-28 29-49 58-49 28 0 52 21 57 49l33 0 0-138c0-5 4-9 10-9 5 0 9 4 9 9l0 25 19-10c1-1 3-1 4-1 3 0 6 1 7 4l43 62c3 4 2 9-2 12l-75 63c-1 0-3 1-5 1l-201 0c-2 0-4-1-6-2l-75-63c-3-3-4-8-1-12l43-62c2-2 4-4 7-4 1 0 3 0 4 1l19 10 0-143c0-6 4-10 9-10l65 0c5 0 9 4 9 10-1 6-5 10-9 10z m164 144l-20 10 0 83 54-45z m-128 72c-19 0-35 14-39 31l77 0c-5-17-20-31-38-31z m-130-72l-34 48 54 45 0-84z m303-54l-181 0c-5 0-9-4-9-10l0-317c0-5 4-9 9-9l70 0c5 0 9 4 9 8l12 219 13-219c0-5 4-8 9-8l69 0c5 0 9 4 9 9l0 317c-1 6-5 10-10 10z m-9-38l-29 0 0 20 29 0z m-116 0l0 20 70 0 0-20z m-18 20l0-20-28 0 0 20z m83-299l-12 220c0 5-4 8-10 8l-17 0c-5 0-9-4-9-8l-12-221-52 0 0 261 163 0 0-261-51 0z"/>
<glyph glyph-name="icon-6" unicode="f" d="M504 205l-116 0c-2 0-6 1-8 3-2 2-2 4-2 7 4 18 4 40 5 54 0 5 0 9 0 11 0 2 0 10 0 18 0 2 2 5 3 7 2 2 4 2 6 2l111 0c5 0 8-3 8-8l0-85c1-6-2-9-7-9z m-106 17l97 0 0 69-94 0c0-4 0-9 0-12 0-2 0-6 0-10-1-12-1-30-3-47z m-274-17l-116 0c-5 0-8 3-8 8l0 85c0 5 3 8 8 8l112 0c2 0 4-1 6-2 3-2 3-4 3-7-2-7-2-15-2-17 0-2 0-7 0-12 0-15 2-36 6-54 1-2 0-5-2-7-1-1-4-2-7-2z m-107 17l97 0c-2 17-2 36-3 47 0 4 0 8 0 10 0 2 0 8 0 12l-94 0z m453-205l-172 0c-5 0-8 3-8 8l0 116c0 3 0 4 1 5l7 12c3 2 6 4 9 4l14-2-12 28c-2 3-1 7 2 10 3 3 7 3 10 0 15-10 37-15 47-4 2 2 6 9 9 22 1 4 4 7 9 7l99 0c5 0 8-3 8-8l0-171c2-15-10-27-23-27z m-163 17l161 0c6 0 9 4 9 8l0 163-83 0c-3-11-7-18-13-23-12-13-30-14-46-8l9-20c2-2 1-6-1-8-2-2-5-3-8-3l-24 2-3-6 0-105z m-93-17l-172 0c-14 0-25 13-25 26l0 170c0 5 3 8 8 8l99 0c5 0 8-2 9-7 2-12 7-19 9-22 10-10 28-7 41 0 4 2 8 2 11-1 2-2 3-7 2-10l-10-23 14 2c3 1 7-1 8-4l13-21c1-2 1-2 1-4l0-108c0-3-3-6-8-6z m-180 188l0-162c0-5 4-8 8-8l162 0 0 97-7 13-25-5c-3-1-6 1-8 4-2 2-2 6-1 8l8 18c-17-3-31 0-41 11-6 5-10 12-13 23z m86 85l-94 0c-5 0-8 3-8 8l0 171c-1 14 11 26 24 26l172 0c5 0 8-3 8-8l0-186c0-3-2-7-6-7-4-1-8 0-10 2-7 9-28 36-46 36-13 0-22-5-27-15-1-2-2-8-3-19-1-4-6-8-10-8z m-86 17l79 0c2 13 3 17 4 18 8 15 23 24 43 25 16 0 32-12 45-25l0 153-163 0c-4 0-8-4-8-8z m452-17l-94 0c-4 0-9 3-9 7-1 12-2 18-3 19-5 10-14 15-27 15-18 0-40-27-46-36-2-2-6-4-10-2-3 1-6 4-6 7l0 187c-1 5 2 8 7 8l172 0c14 0 25-13 25-26l0-171c0-4-4-8-9-8z m-87 17l79 0 0 162c0 5-4 8-8 8l-163 0 0-152c12 13 29 26 45 25 19 0 35-10 43-25 1-1 4-5 4-18z m-143-102c-28 0-51 22-51 50 0 28 23 51 51 51 28 0 51-23 51-51 0-28-23-50-51-50z m0 85c-19 0-34-16-34-35 0-18 15-34 34-34 19 0 34 16 34 34 0 20-15 35-34 35z m0-88c-30 0-54 23-54 53 0 31 24 54 54 54 30 0 54-23 54-54 0-29-24-53-54-53z m0 102c-27 0-48-22-48-47 0-26 22-48 48-48 26 0 48 22 48 48 0 25-21 47-48 47z m0-85c-21 0-37 17-37 38 0 20 16 37 37 37 21 0 37-17 37-37 0-21-16-38-37-38z m0 68c-18 0-31-14-31-32 0-17 13-31 31-31 18 0 31 14 31 31 0 18-13 32-31 32z m-42-40c-3 0-4 1-6 2l-34 26c-3 2-4 8-2 13 2 3 8 4 12 2l35-26c3-2 4-9 2-13-2-3-5-4-7-4z m0-3c-3 0-5 1-7 2l-34 26c-5 3-6 11-2 17 3 5 11 6 17 2l34-26c5-3 6-12 2-17-3-2-6-4-10-4z m-35 43c-2 0-4-1-4-2-1-3-1-7 1-8l34-26c1 0 2-1 4-1 3 0 4 1 4 2 2 2 1 7-1 8l-35 26c-1 1-2 1-3 1z m0-65c-2 0-5 1-7 3-2 4-2 10 2 13l34 26c3 2 10 2 13-2 2-3 2-10-2-13l-35-26c-2-1-3-1-5-1z m0-3c-4 0-7 2-9 5-3 5-2 13 2 17l34 26c5 3 13 2 17-2 3-5 2-13-2-17l-34-27c-4-1-6-2-8-2z m35 42c-2 0-3 0-4-1l-34-25c-2-1-3-5-1-8 1-1 2-2 4-2 1 0 2 1 4 1l35 25c2 1 3 6 1 8-2 2-4 2-5 2z m84-14c-2 0-5 1-7 3-2 3-2 10 2 13l35 26c3 2 9 2 12-2 2-4 2-10-2-13l-34-26c-2 0-3-1-6-1z m0-3c-4 0-7 2-9 5-3 4-2 13 2 17l34 26c6 3 13 2 17-2 3-5 2-13-2-17l-34-27c-2-1-4-2-8-2z m35 43c-1 0-2 0-3-1l-35-26c-2-1-3-6-1-8 1-1 2-2 4-2 2 0 3 1 5 1l33 25c2 1 3 5 1 7-1 4-2 4-4 4z m0-65c-2 0-3 1-5 2l-35 26c-3 2-4 9-2 13 2 3 9 4 13 2l34-26c3-2 4-8 2-13-2-4-4-4-7-4z m0-3c-2 0-4 1-7 2l-35 25c-5 3-6 12-2 17 3 5 12 6 17 2l34-26c5-3 6-12 2-17-2-2-5-3-9-3z m-35 42c-2 0-4-1-4-2-1-2-1-7 1-8l35-26c1 0 2-1 3-1 3 0 4 1 4 2 2 3 1 7-1 8l-34 26c0 1-1 1-4 1z m-11 16c-2 0-4 1-6 2-7 8-16 11-25 11-9 0-18-3-25-11-2-2-4-2-6-2-2 0-4 1-6 2-2 2-4 6-8 10-2 2-3 4-5 7-1 2-2 3-2 5l0 186c0 5 3 8 8 8l85 0c6 0 9-3 9-8l0-186c0-2-1-3-2-5-2-2-3-5-6-7-3-4-5-8-7-10 0-1-2-2-4-2z m-31 30c10 0 21-3 29-9 0 1 1 1 2 2 1 2 2 3 3 4l0 174-68 0 0-173c1-2 2-3 3-5 0-1 1-1 1-2 9 6 20 9 30 9z m42-290l-84 0c-6 0-9 3-9 8l0 109c0 3 2 7 6 9 1 0 3 0 4 0l34 74c2 3 4 5 7 5 3 0 7-2 7-5l27-70c2 2 6 4 10 3 3-1 6-4 6-9l0-116c1-5-2-8-8-8z m-76 17l68 0 0 85-1 0c-3 0-6 2-7 5l-27 67-31-67c-1-2-2-2-2-3z"/>
<glyph glyph-name="icon-12" unicode="n" d="M481 383c0 0 0 1 0 1 0 0 0 0 0 1 0 0 0 0 0 1 0 0 0 0 0 1 0 0 0 0 0 1 0 0 0 0 0 1 0 0 0 0 0 1 0 0 0 0-1 0 0 0-1 0-1 1l-217 119c-3 2-9 2-12 0l-213-117c0 0 0 0-1 0 0 0 0 0-1-1 0 0 0 0-1-1 0 0 0 0 0-1 0 0 0 0 0-1 0 0 0 0 0-1 0 0 0-1 0-1 0 0 0 0 0-1 0 0 0-1 0-1 0 0 0-1 0-1 0 0 0-1 0-1l0-196c0-7 5-12 11-12 6 0 11 5 11 12l0 176 42-21 0-63c0-6 5-11 11-11 7 0 12 5 12 11l0 49 58-32 0-93-67 34c-6 3-12 1-15-6-3-6-1-12 5-15l82-44c2-1 4-1 5-1 2 0 4 1 6 2 3 2 6 6 6 10l0 104 44-24 0-232-197 102c-6 3-12 1-15-5-4-5-1-12 4-15l213-111c0 0 0 0 1 0 0 0 1 0 1 0 0 0 0 0 1 0 0 0 1 0 1 0 0 0 1 0 1 0 0 0 2 0 2 0 0 0 1 0 1 0 0 0 0 0 1 0 0 0 1 0 1 0 0 0 0 0 1 0l214 111c4 2 6 6 6 10z m-346-35l80 42 53-28-76-45z m133-317l0 232 152 80c6 3 8 10 5 15-3 6-10 8-15 5l-152-79-41 21 80 47c4 2 7 6 7 10 0 4-3 8-7 10l-77 40c-3 2-7 2-12 0l-99-52-43 23 191 104 202-111 0-246z m151 131l-91-47c-6-3-8-10-5-15 2-4 6-6 10-6 2 0 4 0 5 1l91 47c6 3 8 10 5 15-2 6-9 8-15 5z m0 53l-91-47c-6-3-8-10-5-15 2-4 6-6 10-6 2 0 4 0 5 1l91 47c6 3 8 10 5 15-2 6-9 8-15 5z m0 53l-52-27c-6-3-8-11-5-16 2-4 6-6 10-6 2 0 4 0 5 1l52 28c6 3 8 10 5 15-2 6-9 8-15 5z"/>
<glyph glyph-name="idioma" unicode="o" d="M498 172c9 27 14 54 14 84 0 30-5 57-14 84 0 1 0 2-1 2-35 99-130 170-241 170-111 0-206-71-241-169 0-1-1-1-1-2-9-28-14-55-14-85 0-30 5-57 14-84 0-1 0-2 1-2 35-99 130-170 241-170 111 0 206 71 241 169 1 1 1 2 1 3z m-242-135c-10 0-26 17-39 57-6 20-11 41-15 65l107 0c-4-24-9-46-15-65-12-40-28-57-38-57z m-58 159c-2 19-2 40-2 60 0 20 1 41 3 60l116 0c2-19 3-40 3-60 0-20-1-41-3-60z m-161 60c0 22 3 42 8 60l116 0c-2-20-3-40-3-60 0-20 1-41 3-60l-116 0c-5 18-8 38-8 60z m219 219c10 0 26-17 39-57 6-20 11-41 15-65l-107 0c4 24 9 46 15 65 12 40 28 57 38 57z m95-159l116 0c5-19 8-40 8-60 0-22-3-42-8-60l-116 0c2 20 3 40 3 60-1 20-2 41-3 60z m102 37l-106 0c-6 45-17 85-34 114 61-15 112-58 140-114z m-254 115c-16-29-27-69-34-114l-106 0c28 55 79 98 140 114z m-140-309l106 0c6-45 17-85 34-114-61 15-112 58-140 114z m254-115c16 29 27 69 34 114l106 0c-28-55-79-98-140-114z"/>
<glyph glyph-name="icon-8" unicode="g" d="M355 241c-5 5-11 8-18 8-2 0-3 0-5 0l-118 117 23 23c4 4 4 9 0 13l-7 6 87 86c4 3 4 6 2 10-1 3-4 6-8 6-49 4-98-14-134-49l-6 6c-1 1-3 3-6 3-2 0-5-2-6-4l-93-93c-5-4-5-9 0-13l9-9-17-17-9 10c-4 4-9 4-13 0l-34-34c-1 0-2-3-2-5 0-2 1-5 3-7l65-64c2-2 4-3 6-3 2 0 5 1 6 3l34 34c2 2 3 4 3 6 0 2-1 5-3 6l-10 9 17 17 9-10c2-2 4-3 6-3 2 0 5 1 6 3l23 23 118-118c-2-8 1-17 7-23l140-140c5-5 11-8 19-8 7 0 14 3 18 8l26 26c10 10 10 28 0 38z m-67 250l-71-71-27 27c27 27 62 42 98 44z m-214-238l-51 52 20 20 51-51z m18 49l-20 20 16 16 21-20z m45 14l-51 51 80 80 51-51z m64 37l114-115-20-20-115 114z m280-276l-25-25c-1-1-3-2-6-2-3 0-5 1-7 2l-139 139c-3 3-3 8 0 11l26 26c1 1 3 2 6 2 2 0 4-1 6-2l139-139c3-3 3-9 0-12z m-172 224c-4-5-4-10 0-14 4-4 9-4 14 0l19 20c24 23 35 56 32 88-2 19 5 39 20 52 4 4 9 7 15 9l-8-24c-3-11-2-21 3-31 6-9 14-16 24-20 22-6 43 6 50 27l8 26c6-10 9-20 10-31 0-16-7-32-18-43-7-7-14-11-23-14-18-6-33-15-44-27l-53-50c-4-4-4-9 0-14 2-2 4-3 7-3 2 0 5 1 6 3l49 50c10 10 22 17 37 22 11 4 22 10 31 20 16 15 24 34 23 56 0 21-9 41-25 56-2 2-6 3-9 2-3-1-5-3-6-6l-13-42c-3-11-16-17-27-14-5 2-10 5-12 10-3 5-3 11-1 16l13 41c1 4 0 7-2 10-2 3-5 4-8 4-14-2-28-9-39-19-20-17-29-42-27-67 3-27-6-54-26-73z m-46-126c-23-24-35-57-32-88 2-20-5-39-20-53-4-4-9-7-14-9l7 25c3 10 2 20-3 30-5 10-14 17-24 20-10 3-20 2-31-3-9-5-16-14-19-24l-8-25c-5 9-8 19-9 30 0 17 6 32 17 43 7 8 14 12 24 15 16 5 32 14 44 26l49 49c4 5 4 10 0 14-4 4-10 4-14 0l-49-49c-10-11-22-18-37-23-11-4-22-10-31-19-16-16-24-35-23-57 0-21 9-41 25-56 2-2 6-3 9-2 3 1 5 3 6 6l13 42c2 5 5 10 11 12 5 3 11 3 16 1 5-2 10-5 12-10 3-5 3-11 1-16l-13-41c-1-3 0-6 2-9 2-2 4-3 7-3 0 0 1 0 1 0 15 2 28 9 39 18 20 17 29 42 27 68-3 26 6 53 26 72 4 4 4 9 0 14 1 5-5 5-9 2z"/>
<glyph glyph-name="icon-11" unicode="k" d="M145 256c-13 0-25-12-25-26l0-85c0-13 12-25 25-25l18 0c13 0 25 12 25 25 0 5 6 9 9 9l33 0c4 0 9-6 9-9 0-13 12-25 25-25l79 0c3-10 13-18 24-18 14 0 25 12 25 26 0 14-11 26-25 26-12 0-21-8-24-18l-79 0c-4 0-8 5-8 8 0 14-12 26-26 26l-33 0c-14 0-26-12-26-26 0-4-5-8-8-8l-18 0c-4 0-8 5-8 8l0 85c0 4 5 9 8 9 14 0 26 12 26 25 0 13-12 26-26 26-4 0-8 5-8 8l0 69c0 4 5 8 8 8l223 0c4 0 8-5 8-8l0-137c0-4-5-8-8-8l-28 0c-3 7-8 13-15 16l0 54c10 3 17 13 17 23 0 15-11 26-26 26-14 0-25-11-25-26 0-11 7-20 17-23l0-54c-7-4-13-9-15-16l-62 0c-4 0-8 5-8 8l0 28c10 3 18 13 18 24 0 14-12 25-26 25-14 0-26-11-26-25 0-12 8-21 18-24l0-28c0-13 12-25 25-25l62 0c3-10 13-18 23-18 12 0 21 8 24 18l28 0c13 0 25 12 25 25l0 138c0 13-12 25-25 25l-224 0c-13 0-25-12-25-25l0-69c0-13 12-26 25-26 5 0 9-5 9-8 0-3-6-8-9-8z m222-120c5 0 8-4 8-8 0-5-4-8-8-8-6 0-9 4-9 8 0 5 4 8 9 8z m-154 137c-5 0-8 5-8 9 0 5 4 8 8 8 5 0 8-4 8-8 1-6-3-9-8-9z m102 52c6 0 9-4 9-9 0-5-5-8-9-8-5 0-8 4-8 8 0 5 4 9 8 9z m0-120c-5 0-8 4-8 8 0 5 4 8 8 8 6 0 9-4 9-8 1-4-3-8-9-8z m189 120c5 0 8 4 8 8 0 5-4 8-8 8l-26 0 0 34 26 0c5 0 8 4 8 8 0 5-4 8-8 8l-26 0 0 44c0 22-20 43-43 43l-43 0 0 26c0 4-3 8-8 8-5 0-8-4-8-8l0-26-34 0 0 26c-1 4-4 8-9 8-5 0-8-4-8-8l0-26-34 0 0 26c-1 4-4 8-9 8-6 0-9-4-9-8l0-26-33 0 0 26c-1 4-4 8-10 8-5 0-8-4-8-8l0-26-34 0 0 26c-1 4-4 8-9 8-5 0-8-4-8-8l0-26-34 0 0 26c-1 4-4 8-9 8-5 0-8-4-8-8l0-26-43 0c-22 0-43-20-43-43l0-43-26 0c-4 0-8-3-8-8 0-5 4-8 8-8l26 0 0-34-26 0c-4-1-8-4-8-9 0-5 4-8 8-8l26 0 0-34-26 0c-4-1-8-4-8-9 0-6 4-9 8-9l26 0 0-33-26 0c-4-1-8-4-8-10 0-5 4-8 8-8l26 0 0-34-26 0c-4-1-8-4-8-9 0-5 4-8 8-8l26 0 0-34-26 0c-4-1-8-4-8-9 0-5 4-8 8-8l26 0 0-8c0-6 4-9 8-9 5-1 9 3 9 8l0 324c0 12 14 26 26 26l358 0c12 0 26-14 26-26l0-358c0-12-14-26-26-26l-358 0c-12 0-26 14-26 26 0 5-4 8-8 8-5 0-8-4-8-8 0-22 20-43 43-43l43 0 0-26c0-5 4-8 8-8 5 0 8 4 8 8l0 26 34 0 0-26c0-5 4-8 8-8 5 0 8 4 8 8l0 26 34 0 0-26c0-5 4-8 8-8 5 0 9 4 9 8l0 26 33 0 0-26c0-5 4-8 9-8 5 0 8 4 8 8l0 26 34 0 0-26c0-5 4-8 8-8 5 0 8 4 8 8l0 26 34 0 0-26c0-5 4-8 8-8 5 0 8 4 8 8l0 26 43 0c22 0 43 20 43 43l0 43 26 0c5 0 8 4 8 8 0 5-4 8-8 8l-26 0 0 34 26 0c5 0 8 4 8 8 0 5-4 8-8 8l-26 0 0 34 26 0c5 0 8 4 8 8 0 5-4 9-8 9l-26 0 0 33 26 0c5 0 8 4 8 9 0 5-4 8-8 8l-26 0 0 34z m-410 85c5 0 8 4 8 8 0 5-4 8-8 8-5 0-8-4-8-8 0-4 3-8 8-8z m0-325c5 0 8 4 8 8 0 5-4 8-8 8-5 0-8-4-8-8 0-4 3-8 8-8z m325 0c5 0 8 4 8 8 0 5-4 8-8 8-5 0-8-4-8-8-1-4 3-8 8-8z m0 325c5 0 8 4 8 8 0 5-4 8-8 8-5 0-8-4-8-8-1-4 3-8 8-8z"/>
<glyph glyph-name="delete" unicode="p" d="M437 347l-18-324c-1-12-10-21-22-21l-283 0c-12 0-21 9-22 21l-18 324c-1 12 10 22 22 23 12 1 22-9 23-21l16-303 242 0 15 303c1 12 11 21 23 21 13-1 23-11 22-23z m60 74c0-12-11-23-23-23l-436 0c-12 0-23 11-23 23 0 12 11 22 23 22l123 0 0 51c0 10 7 16 18 16l154 0c11 0 18-6 18-16l0-50 123 0c12-1 23-11 23-23z m-297 22l111 0 0 29-111 0z"/>
<glyph glyph-name="contact" unicode="q" d="M361 507l-207 0c-25 0-46-19-46-44l0-411c0-25 22-47 46-47l207 0c24 0 43 21 43 47l0 411c0 25-18 44-43 44z m3-463l-216 0 0 64 216 0z m0 104l-216 0 0 216 216 0z m0 256l-216 0 0 64 216 0z"/>
<glyph glyph-name="compradores" unicode="r" d="M461 69l-30 331c-1 7-6 12-12 12l-63 0c0 55-45 100-100 100-55 0-100-45-100-100l-63 0c-6 0-12-5-12-12l-30-331 0-1c0-38 34-68 76-68l258 0c42 0 76 30 76 68z m-205 417c41 0 75-33 75-74l-150 0c0 41 33 74 75 74z m129-460l-258 0c-28 0-50 18-50 41l28 319 51 0 0-45c0-7 6-12 12-12 7 0 12 6 12 12l0 45 150 0 0-45c0-7 6-12 12-12 7 0 12 6 12 12l0 45 50 0 29-319c1-23-21-41-48-41z"/>
<glyph glyph-name="check" unicode="s" d="M255 512c-139 0-255-116-255-255 0-141 116-254 255-254 139 0 254 115 254 254 3 139-113 255-254 255z m0-471c-119 0-214 95-214 214 0 118 95 213 214 213 118 0 213-95 213-213 3-116-95-214-213-214z m82 296l-118-118-44 43c-8 8-21 8-31 0-8-7-8-20 0-28l59-59c5-5 11-5 16-5 5 0 10 2 15 5l134 134c8 7 8 20 0 28-10 8-23 8-31 0z"/>
<glyph glyph-name="check-1" unicode="t" d="M435 435l-261-261-94 95c-19 18-47 18-63 0-19-19-19-48 0-63l126-129c9-10 19-13 31-13 13 0 22 3 32 13l292 292c19 19 19 48 0 63-19 19-47 19-63 3z"/>
<glyph glyph-name="edit" unicode="u" d="M464 317l18 19c40 40 40 105 0 145-41 41-106 41-146 1l-19-18z m-182 110l-229-227 92-19 191 192z m-275-420c6-6 16-9 25-7l120 31-21 101-101 21-29-121c-2-8 0-18 6-25z m366 329l-192-191 19-92 227 229z"/>
<glyph glyph-name="favorito" unicode="v" d="M437 463c-21 11-44 18-71 18-44 0-84-21-111-53-26 32-65 53-110 53-26 0-49-7-70-18-44-26-75-74-75-130 0-16 3-31 7-45 25-114 249-257 249-257 0 0 224 143 249 257 4 15 7 30 7 45 0 56-31 104-75 130z"/>
<glyph glyph-name="mensajes" unicode="w" d="M488 477l-464 0c-12 0-22-10-22-22l0-282c0-12 10-22 22-22l260 0 0-94c0-8 7-17 16-20 2-1 5-2 8-2 6 0 13 3 16 8l92 108 72 0c12 0 22 10 22 22l0 282c0 12-10 22-22 22z m-22-282l-60 0c-7 0-14-3-18-8l-60-70 0 56c0 12-7 22-19 22l-263 0 0 238 420 0z"/>
<glyph glyph-name="vendedores" unicode="x" d="M364 236l-70 0c-19 0-35-15-35-35l0-53c0-19 15-35 35-35l70 0c18 0 35 15 35 35l0 53c-1 19-17 35-35 35z m9-88c0-5-5-10-10-10l-70 0c-5 0-10 5-10 10l0 53c0 6 5 10 10 10l70 0c5 0 10-4 10-10z m139 185c0 2-1 4-2 6l-76 134c-2 4-7 6-11 6l-335 0c-4 0-8-2-10-6l-76-134c-1-2-2-3-2-6 0-31 18-56 44-67l0-221c0-7 5-12 12-12l399 0c7 0 12 5 12 12l0 219c0 1 0 1 0 2 26 11 45 36 45 67z m-416 121l319 0 60-104-438 0z m269-129c-4-23-25-40-48-40-24 0-44 17-47 40z m-123 0c-3-23-24-40-47-40-23 0-44 17-48 40z m-216 0l95 0c-4-23-24-40-48-40-23 0-44 17-47 40z m185-267l-72 0 0 135c0 10 8 18 17 18l37 0c10 0 18-8 18-18z m231 0l-206 0 0 135c0 24-20 43-43 43l-37 0c-23 0-43-19-43-43l0-135-44 0 0 202c2 0 2 0 4 0 25 0 48 12 61 32 13-20 36-32 61-32 25 0 47 12 61 32 13-20 35-32 60-32 25 0 48 12 61 32 13-20 36-32 61-32 2 0 3 0 4 0z m-3 227c-24 0-44 17-48 39l95 0c-4-22-24-39-47-39z"/>
<glyph glyph-name="suplier-menber" unicode="y" d="M387 197c-8 0-14-7-14-15l0-94-43 29c-5 3-12 3-17 0l-43-29 0 53c0 9-6 15-14 15-8 0-14-6-14-15l0-100-43 29c-5 3-12 3-17 0l-43-29 0 180c31-28 72-47 117-47 93 0 169 76 169 169 0 93-76 169-169 169-93 0-169-76-169-169 0-32 8-60 24-86l0-243c0-5 3-10 7-12 5-2 10-2 14 1l57 39 58-39c2-2 5-2 8-2 2 0 5 1 7 2 5 2 7 7 7 12l0 40 52 35 57-39c2-2 5-2 8-2 2 0 5 1 7 2 5 2 7 7 7 12l0 119c1 8-5 15-13 15z m-131 286c78 0 140-62 140-140 0-78-62-140-140-140-78 0-140 62-140 140 0 78 62 140 140 140z m36-187l-32 16-32-16 0-1-1 1 6 36-25 24 0 1 36 5 16 32 16-32 35-5-25-25 6-36"/>
<glyph glyph-name="suplier" unicode="z" d="M406 237c7-7 11-17 11-28 0-10-4-21-11-28-8-8-18-12-29-12-10 0-21 4-28 12-7 7-12 17-12 28 0 11 5 21 12 28 7 7 17 12 28 12 10 0 21-4 29-12z m106 89l0-251c0-25-21-46-46-46l-411 0c-30 0-55 24-55 54l0 332c0 37 31 68 68 68l314 0c31 0 55-25 55-56l0-35 10 0c36 0 65-31 65-66z m-470 89c0-13 10-23 23-23l327 0 0 36c0 5-5 10-10 10l-317 0c-12 0-23-10-23-23z m425-89c0 10-9 21-19 21l-393 0c-6 0-10-7-10-12l0-252c0-4 4-9 10-9l411 0c0 0 1 0 1 1z"/>
<glyph glyph-name="proveedores" unicode="A" d="M449 374c-5 4-11 7-17 7l-57 0 0 10c1 67-54 121-118 121l-2 0c-64 0-118-54-118-121l0-10-57 0c-12 0-23-11-23-24l0-334c0-13 11-23 23-23l352 0c12 0 23 10 23 23l0 334c0 7-2 13-6 17z m-267 17c0 41 34 75 73 75l2 0c39 0 73-34 73-75l0-10-148 0z m228-346l-308 0 0 291 34 0 0-40c0-12 10-23 23-23 12 0 22 11 22 23l0 40 148 0 0-40c0-12 10-23 22-23 13 0 23 11 23 23l0 40 36 0z"/>
<glyph glyph-name="pais" unicode="B" d="M458 229l47 120c4 11 3 23-3 32-6 10-17 16-29 16l-171 0c0 39-31 71-69 71l-182 0 0 5c0 13-10 24-23 24-13 0-24-11-24-24l0-458 47 0 0 126 137 0c0-39 31-69 69-69l216 0c12 0 22 6 29 15 6 11 7 23 2 34z m-247-41c-1 0-2 0-3 0-1 0-2 0-3 0l-154 0 0 233 182 0c12 0 22-10 22-23l0-128c0-13 11-24 24-24 12 0 23 11 23 24l0 81 153 0-44-114c-2-5-2-11 0-17l44-101-198 0c-13 0-23 10-23 23l0 23c0 13-10 23-23 23z"/>
<glyph glyph-name="nuevo-usuraio" unicode="C" d="M445 132l-35 0 0 35-34 0 0-35-34 0 0-33 34 0 0-34 34 0 0 34 35 0z m-51 99c-16 0-31-3-45-9-1-1-2-1-4-2-1-1-3-1-5-2-1-1-3-1-4-2-3-2-6-3-8-5-2-1-3-2-5-3-1-1-2-2-4-3-1-1-2-2-4-3l-1-1c-23-22-38-51-38-85 2-64 54-116 118-116 63 0 115 52 115 116 0 64-51 115-115 115z m0-204c-49 0-89 40-89 89 0 49 40 89 89 89 49 0 89-40 89-89 0-49-40-89-89-89z m-112 244l-8 4 7 6c35 23 55 62 55 104 0 70-57 127-127 127-69 0-126-57-126-127 0-40 19-77 51-101l7-5-8-4c-78-31-130-110-130-198 0-8 6-16 14-16 8 0 14 7 14 16 0 99 76 181 170 181 41 0 81-16 112-45 8 6 16 12 25 16 0 0 0 0 1 0-16 19-36 32-57 42z m-169 113c0 53 43 96 96 96 54 0 97-43 97-96 0-53-43-96-97-96-53 0-96 43-96 96z"/>
<glyph glyph-name="x" unicode="D" d="M495 90l-163 166c0 0 0 3 0 3l159 160c18 17 24 48 11 69-21 31-59 31-83 10l-163-166c0 0-3 0-3 0l-160 163c-17 17-48 24-69 10-31-21-31-59-10-83l162-163c0 0 0-3 0-3l-159-159c-17-17-24-49-10-69 21-31 59-31 83-11l163 163c0 0 3 0 3 0l159-159c17-18 49-24 69-11 31 18 35 59 11 80z"/>
<glyph glyph-name="user" unicode="E" d="M348 243c7 4 13 10 19 16 28 28 43 64 43 103 0 39-15 76-43 104-27 27-64 43-103 43-39 0-76-16-103-43-28-28-43-64-43-104 0-39 15-75 43-103 4-4 8-8 13-12-85-35-145-121-145-223 0-12 11-23 24-23 12 0 23 11 23 23 0 106 81 192 180 192 99 0 180-86 180-192 0-12 11-23 23-23 13 0 24 10 24 23 0 98-56 182-135 219z m-183 119c0 55 45 99 99 99 54 0 98-44 98-99 0-54-44-98-98-98-54 0-99 44-99 98z"/>
<glyph glyph-name="menu" unicode="F" d="M21 384l470 0c12 0 21 9 21 20 0 11-9 20-21 20l-470 0c-12 0-21-9-21-20 0-11 9-20 21-20z m470-108l-470 0c-12 0-21-9-21-20 0-11 9-20 21-20l470 0c12 0 21 9 21 20 0 11-9 20-21 20z m-151-148l-319 0c-12 0-21-9-21-20 0-11 9-20 21-20l319 0c11 0 20 9 20 20 0 11-9 20-20 20z"/>
<glyph glyph-name="icon-2-2" unicode="d" d="M287 384c22-5 49-8 79-8 30 0 57 3 79 8 7 2 14 4 19 6l0-19c-2-2-9-7-29-12-19-4-43-6-69-6-33 0-64 4-84 11-5 2-11-2-12-7-2-5 1-11 6-12 21-7 54-11 90-11 30 0 57 3 79 8 3 1 5 1 7 2l-12-73c-1-5 3-10 8-11 1 0 1 0 2 0 5 0 9 3 10 8l15 85c6 5 10 11 10 17l0 43c0 12-13 21-39 27-22 5-49 9-79 9-30 0-57-4-79-9-26-6-39-15-39-27 0-13 12-22 38-29z m10 38c19 4 43 6 69 6 26 0 49-2 69-6 16-3 24-7 27-10-3-2-11-6-27-11-19-4-43-6-69-6-26 0-49 2-69 6-16 3-24 8-27 11 2 3 10 7 27 10z m143-180c-1 0-1 0-2 1-3 1-10 4-17-4 0-1-1-1-1-2-4-6-19-11-38-11-23 0-36 7-38 12 0 1 1 2 4 3 4 2 5 6 5 11-1 4-5 7-9 7-12 1-23 1-35 1-87 0-175-21-175-61l0-138c0-41 88-61 175-61 87 0 175 22 175 61l0 138c2 22-27 37-44 43z m25-181c0-6-11-17-42-26-30-9-70-15-113-15-43 0-84 6-114 15-31 9-42 20-42 26l0 108c31-21 93-32 156-32 62 0 125 10 155 32z m-266 110c4 3 16 7 31 7 19 0 31-6 33-8-2-2-9-6-20-7-16 1-31 4-44 8z m254 13c0 5-5 10-10 10l-2 0c-5 0-10-5-10-11 0-3 2-6 4-8-3-1-7-3-12-4-30-9-70-14-113-14-10 0-21 0-30 1 2 3 4 7 4 11 0 18-26 29-53 29-22 0-44-8-51-20-19 8-25 17-25 22 0 5 6 12 21 19 1-5 5-9 10-9l2 0c5 0 10 4 10 10 0 2-1 5-2 6 0 0 1 0 1 0 31 10 71 15 114 15 5 0 10 0 15 0 0-1 0-2 0-3 0-21 30-31 59-31 22 0 41 6 51 15 17-7 30-16 30-23-1-3-4-9-13-15z m-163 37c0-5-4-10-10-10l-2 0c-5 0-10 4-10 10 0 5 4 10 10 10l2 0c6 0 10-5 10-10z m57-40c0-5-4-10-11-10l-2 0c-5 0-10 4-10 10 0 5 4 10 10 10l2 0c7 0 11-5 11-10z m-158 100l0 41c0 16-2 28-7 43-2 5 0 11 5 13 5 2 11 0 13-5 6-16 9-31 9-50l0-41c0-6-4-11-10-11-6-1-10 4-10 10z m-81-230c-22 0-41 18-41 38l0 236c0 28 7 43 19 66 1 1 1 3 2 4l121 0c1-1 1-3 2-4 12-23 19-37 19-66l0-36c0-5 4-10 10-10 5 0 10 4 10 10l0 36c0 33-9 51-20 74-1 3-3 7-4 10-5 9-9 20-16 33l0 4c5 6 8 12 8 19l0 19c0 16-13 28-28 28l-82 0c-15 0-28-12-28-28l0-15-25 10c-5 2-11 0-14-5-2-5 0-11 6-13l28-12-44-28c-5-3-6-9-4-13 3-6 9-7 13-4l40 25c-2-7-5-13-8-19-2-3-3-7-4-10-12-23-20-41-20-74l0-236c0-32 27-58 60-58 5 0 10 4 10 10-1 5-5 9-10 9z m-7 433c0 4 3 9 8 9l80 0c4 0 8-4 8-9l0-19c0-2-1-5-3-6 0 0 0 0-1 0-1-1-3-1-4-1l-81 0c-2 0-3 0-4 1 0 0 0 0-1 0-1 2-2 4-2 6z m6-47c1 0 1 0 2 0l80 0c1 0 1 0 2 0 3-8 6-15 9-21l-102 0c2 6 5 13 9 21z"/>
<glyph glyph-name="menu" unicode="F" d="M21 384l470 0c12 0 21 9 21 20 0 11-9 20-21 20l-470 0c-12 0-21-9-21-20 0-11 9-20 21-20z m470-108l-470 0c-12 0-21-9-21-20 0-11 9-20 21-20l470 0c12 0 21 9 21 20 0 11-9 20-21 20z m-151-148l-319 0c-12 0-21-9-21-20 0-11 9-20 21-20l319 0c11 0 20 9 20 20 0 11-9 20-20 20z"/>
<glyph glyph-name="icon-mensaje-2" unicode="G" d="M484 474l-458 0c-11 0-21-11-21-21l0-278c0-13 10-21 21-21l254 0 0-92c0-11 8-18 16-21 2 0 5-3 8-3 5 0 13 3 18 8l90 106 69 0c13 0 21 10 21 20l0 281c5 10-5 21-18 21z m-21-279l-59 0c-5 0-13-2-18-7l-59-70 0 54c0 13-8 23-21 23l-257 0 0 235 414 0z m-358 158c0 12 11 20 21 20l157 0c13 0 21-10 21-20 0-11-11-21-21-21l-154 0c-13 0-24 10-24 21z m240-16c-3 5-5 10-5 16 0 5 2 10 5 15 5 5 10 5 15 5 5 0 11-2 16-5 5-5 5-10 5-15 0-6-3-11-5-16-5-5-11-5-16-5-5-3-10 0-15 5z"/>
<glyph glyph-name="icon-menu-bold" unicode="H" d="M468 355l-421 0c-17 0-31 14-31 31 0 14 14 28 31 28l421 0c16 0 30-14 30-31-2-14-14-28-30-28z m0-128l-421 0c-17 0-31 14-31 28 0 16 14 30 31 30l421 0c16 0 30-14 30-30-2-14-14-28-30-28z m-136-129l-285 0c-17 0-31 14-31 31 0 16 14 28 31 28l285 0c16 0 30-14 30-31 0-16-14-28-30-28z"/>
<glyph glyph-name="icon-9" unicode="I" d="M237 221c-4-4-4-9-1-13 2-2 4-3 6-3 2 0 5 1 6 3l1 1c4 3 4 9 0 12-3 4-9 4-12 0z m56 113c-4 4-9 4-14 0l-106-100c-4-3-4-10 0-13 2-2 5-3 7-3 2 0 5 1 6 3l106 101c4 3 4 8 1 12z m-84 81c-39-6-72-26-95-57-22-31-31-67-24-104 6-37 27-68 59-91 24-17 54-25 84-25 8 0 16 1 24 2 21 3 41 11 58 22 4 3 5 8 2 12-3 5-8 6-13 2-15-10-33-16-51-19-34-5-67 2-95 21-27 18-46 46-52 78-6 32 2 64 22 91 19 26 48 44 82 49 39 6 79-5 107-31 4-3 9-3 13 1 3 4 3 9-1 12-30 32-75 44-120 37z m-4-105c4 3 4 9 0 12-4 3-9 3-13 0l-31-29c-4-3-4-9 0-13 2-2 4-3 6-3 2 0 5 1 6 3z m149 118c-35 26-77 40-121 40-53 0-103-20-140-56-38-36-58-84-58-135 0-51 20-97 58-134 36-34 81-53 131-55l0-27-70 0c-5 0-9-4-9-9 0-5 4-9 9-9l157 0c5 0 9 4 9 9 0 5-4 9-9 9l-69 0 0 28c28 1 57 8 82 21 4 2 6 7 4 12-2 5-8 7-12 5-25-14-54-20-83-20-99 0-181 78-181 172 0 95 81 173 181 173 39 0 78-13 110-36 4-3 10-2 13 2 3 2 2 7-2 10z m114-148l0 21c0 6-4 12-9 15l0 93c0 6-2 12-6 16l-28 33c-5 6-13 10-21 10-15 0-28-12-28-26l0-126c-5-3-9-9-9-15l0-21c-5-3-9-9-9-15l0-193c0-15 12-27 27-27l65 0c15 0 27 12 27 27l0 193c0 6-3 12-9 15z m-73 162c0 5 4 9 9 9 3 0 5-1 7-3l27-33c1-2 2-3 2-5l0-91-45 0z m-10-142l65 0 0-18-65 0z m74-230c0-5-4-9-9-9l-65 0c-5 0-9 4-9 9l0 194 84 0 0-194z m-231 261l3 2c4 4 4 10 0 13-5 3-10 3-14 0l-2-1c-4-3-4-9 0-13 2-2 4-3 6-3 3 0 5 1 7 2z m41-99c2 0 5 1 6 3l30 28c4 3 4 9 0 12-4 3-9 3-13 0l-30-28c-4-3-4-9 0-12 2-2 4-3 7-3z"/>
<glyph glyph-name="construccin" unicode="J" d="M344 244c-4 4-11 7-17 7-2 0-3 0-4 0l-104 100 21 19c3 3 3 8 0 11l-6 3 76 74c2 2 3 5 2 8-1 3-4 5-7 5-44 3-87-12-118-42l-5 5c-2 1-4 2-7 2-2 0-4-1-6-2l-82-78c-3-3-3-8 0-11l8-7-14-15-8 8c-4 3-9 3-12 0l-30-28c-2-1-2-3-2-5 0-2 1-4 2-5l58-55c2-2 4-2 6-2 2 0 4 1 6 2l30 28c2 1 2 3 2 5 0 2-1 4-2 5l-9 8 15 14 8-7c2-1 4-2 6-2 2 0 4 1 6 2l21 19 103-100c-1-7 2-15 7-20l123-118c4-5 10-8 16-8 6 0 12 2 17 8l23 22c9 9 9 23 0 32z m-59 212l-63-60-23 22c22 22 53 36 86 38z m-190-203l-46 44 18 17 46-44z m15 42l-18 17 14 14 19-17z m41 12l-46 44 70 67 46-44z m56 32l101-97-18-18-101 97z m249-235l-24-22c-1-1-3-2-5-2-2 0-4 1-5 2l-123 119c-3 3-3 7 0 9l23 23c1 1 3 2 5 2 2 0 4-1 5-2l124-119c3-3 3-7 0-10z m-153 190c-3-3-3-8 0-12 3-3 8-3 11 0l17 18c22 20 32 47 28 74-2 17 5 33 17 44 4 3 8 6 13 8l-8-20c-3-8-2-17 2-26 4-8 13-14 21-16 18-5 39 4 45 22l7 22c5-8 7-16 8-26 0-14-5-26-15-36-6-6-14-10-22-13-15-5-28-12-40-22l-42-42c-3-3-3-8 0-11 2-2 4-2 6-2 2 0 4 1 6 2l43 42c9 8 20 15 32 19 11 3 21 9 28 17 13 13 20 29 20 47 0 19-8 35-22 48-2 2-5 3-8 2-3-1-5-3-6-5l-12-35c-3-10-13-16-23-13-5 1-9 4-11 10 1 1 1 6 2 10l11 35c1 3 0 5-2 8-1 2-4 3-7 3-13-2-25-8-35-16-17-14-25-35-23-57 3-22-6-45-24-62z m-40-107c-21-21-31-47-27-75 2-16-5-32-18-44-4-3-8-6-12-8l7 21c3 8 2 17-2 25-4 8-12 14-20 16-9 4-19 3-28-2-8-4-14-11-17-20l-7-21c-5 8-7 16-8 25 0 14 5 27 15 37 6 6 13 10 21 12 16 5 29 12 40 22l44 42c3 3 3 8 0 11-3 4-8 4-11 0l-44-41c-9-8-21-16-33-20-10-3-20-9-27-16-14-13-21-30-21-48 0-18 8-35 23-48 2-2 5-3 8-2 3 1 5 3 6 5l11 36c1 5 5 8 9 10 4 2 10 3 15 1 5-1 9-4 11-9 2-4 3-9 1-13l-11-35c-1-3 0-5 2-7 2-2 4-3 6-3 0 0 1 0 1 0 13 2 24 7 35 15 17 14 25 36 23 57-3 23 6 45 23 62 3 3 3 9 0 12-7 6-12 6-15 3z"/>
<glyph glyph-name="icon-7" unicode="K" d="M256 468c-122 0-222-95-222-212 0-117 100-212 222-212 122 0 221 95 221 212 1 117-99 212-221 212z m202-212c0-7 0-14-1-21l-22 32 15 41c5-16 8-35 8-52z m-80-153c-17-13-37-23-58-29l20 23z m-303 236c7 15 17 29 28 42l-4-24z m226 89l-21 19c19-2 37-7 54-14z m-137-113l6-107-51-49-47 20c-12 24-18 50-18 77 0 16 2 33 7 49l51 37z m180-45l-55-81-98 25-6 97 94 35z m-72 94l-93-35-59 30 8 44c34 27 77 43 122 45 0-1 1-1 1-2l36-32z m-85-168l96-25 39-63-34-42c-42-6-83 0-119 17l-35 62z m174 80l-68 83 13 49 54 9c1 0 2 1 3 1 33-19 65-48 75-81l-20-61z m1-10l53 0c0 0 0-3 0-3l35-56c-8-29-24-57-45-79-1 0-1 0-2 0l-63-11-37 61z m-249-126l22-38c-19 13-35 30-47 48z"/>
<glyph glyph-name="icon-5" unicode="L" d="M492 428l-472 0c-5 0-8-3-8-7l0-290c0-4 3-8 9-8l210 0 0-24-57 0c-4 0-8-3-8-7 0-4 3-7 8-7l166 0c4 0 8 3 8 7 0 4-3 7-8 7l-56 0 0 24 209 0c5 0 9 4 9 8l0 290c-2 4-5 7-10 7z m-225-329l-22 0 0 24 22 0z m217 39l-456 0 0 275 456 0z m-32 27l-23 0c-3 0-5-2-5-5 0-3 2-5 5-5l23 0c3 0 5 2 5 5 0 3-2 5-5 5z m-175 0l-41 0c-3 0-5-2-5-5 0-3 2-5 5-5l41 0c3 0 6 2 6 5 0 3-4 5-6 5z"/>
<glyph glyph-name="icon-15" unicode="M" d="M6 350c0-5 4-9 10-9l36 0c4-23 26-40 50-40l51 0c2-3 5-4 8-4l34 0c3-41 39-74 81-74l96 0 0-12c0-5 4-9 10-9 7 0 11 4 11 9l0 10 5 0 0-29c0-3 2-7 5-8l12-6 0-38c0-24 20-43 45-43 21 0 39 16 40 37l5 120c0 1 0 2 0 3l-27 93c13 5 24 17 24 32 0 20-17 35-36 35l-251 0c-9 0-16-5-19-13l-35 0c-4 0-7-2-8-4l-51 0c-24 0-46-17-50-39l-36 0c-6-2-10-6-10-11z m209-50l0 96 251 0c9 0 16-7 16-16 0-8-7-15-16-15l-121 0c-5 0-11-4-11-9 0-5 5-9 11-9l113 0 27-95-5-118c0-11-9-19-20-19-14 0-26 12-26 24l0 44c0 3-2 7-5 8l-12 6 0 35c0 5-4 9-10 9l-130 0c-34 0-62 26-62 59z m-19 14l-25 0 0 69 25 0z m-124 35c0 16 14 29 31 29l49 0 0-60-50 0c-17 1-30 14-30 31z m240-2l-5 0c-5 0-10 4-10 9 0 5 4 9 10 9l5 0c5 0 10-4 10-9 0-5-5-9-10-9z m-34-80l33 0c5 0 10-4 10-9 0-5-4-9-10-9l-33 0c-5 0-10 4-10 9 0 5 4 9 10 9z m0 27l33 0c5 0 10-4 10-9 0-6-4-10-10-10l-33 0c-5 0-10 4-10 10 0 5 4 9 10 9z m0 26l33 0c5 0 10-4 10-9 0-5-4-9-10-9l-33 0c-5 0-10 4-10 9 0 5 4 9 10 9z"/>
<glyph glyph-name="icon-10" unicode="N" d="M498 208l0 19c0 33-8 65-21 95-4 9-13 15-23 15-11 0-22-8-25-18l-4-14c-4-13-16-23-30-23-10 0-19 5-25 11l-17 20 6 18c1 3 1 6 1 9l0 3c0 14-12 25-27 25-6 0-11-2-15-5l-25-19c-2 0-4 0-7 0-17 0-32-4-45-13l-43-26c-33-20-69-34-108-41l-43-7c-23-4-41-23-41-47 0-20 14-38 33-45 42-14 84-21 128-21l313 0c13 0 25 10 25 23l0 6c1 13-2 24-7 35z m-103 59c21 0 40 13 45 34l5 14c1 4 5 6 9 6 4 0 7-2 8-5 12-28 19-58 19-89l0-14c-18-2-72-7-136-7-1 0-2 0-4 0l-48 72c15 10 26 23 32 39 4-3 8-6 12-10l21-23c10-11 23-17 37-17z m-149-70l-35 54 27 8 39-57c-8-1-15-2-22-3-4-1-7-2-9-2z m48 7l-42 60 23 7c1 0 1 1 2 1l44-66c-9-1-18-1-27-2z m34 146c2 1 4 2 6 2 6 0 11-4 11-9l0-3c0-1 0-2 0-3l-4-12c-9 6-17 12-27 15z m-121-57l43 26c11 7 23 10 37 10 8 0 17-2 24-4-6-18-20-32-40-38l-96-31c-13-4-28-4-40 1l-5 2c26 7 53 18 77 34z m-157-50l43 7c3 1 6 1 9 2l26-10c9-3 18-5 28-5 8 0 16 1 25 4l14 4 33-51c-14-2-31-3-53-3-59 0-130 21-151 28 3 12 13 22 26 24z m439-76c0-4-4-8-8-8l-313 0c-41 0-83 7-123 21-10 4-18 12-21 22 26-8 93-28 151-28 36 0 60 5 81 8 23 4 47 8 88 8 66 0 122 5 139 7 3-8 5-16 5-25l0-5z m-209 139c0 4-3 8-8 8-4 0-8-4-8-8 0-5 4-8 8-8 5 0 8 3 8 8z m-40-15c0 4-4 8-8 8-5 0-9-4-9-8 0-5 4-9 9-9 4 0 8 4 8 9z"/>
<glyph glyph-name="icon-13" unicode="j" d="M505 362l-143 143c-5 5-11 7-17 7-7 0-13-2-17-7-5-5-7-11-7-18 0-5 2-11 5-15l-295-295c-41-41-41-106 0-146 19-20 45-31 72-31 28 0 54 11 73 31l296 296c4-3 9-5 15-5 7 0 13 2 18 7 9 8 9 24 0 33z m-11-23c-2-2-5-2-7-2-2 0-4 1-6 2l-3 3c0 0-1 1-1 1 0 0-1 1-1 1l-87 88c-3 3-8 3-11 0-3-3-3-8 0-11l83-83-296-296c-17-16-38-26-62-26-23 0-45 10-61 26-34 34-34 89 0 123l295 296 17-18c4-3 10-3 13 0 3 3 3 9 0 12l-22 21c0 0-1 1-1 1 0 0-1 1-1 1l-4 3c-2 2-2 4-2 6 0 2 1 5 2 7 2 2 4 2 6 2 2 0 4-1 6-2l143-143c3-4 3-9 0-12z m-191-125c-7 7-14 8-19 9-4 1-8 1-11 5-4 4-4 6-5 11-1 5-2 12-9 19-7 7-14 8-19 9-4 1-8 1-11 5-4 4-4 7-5 11-1 5-2 12-9 19-1 1-4 2-6 2-2 0-4-1-6-2l-64-63c-3-3-3-9 0-12 3-3 8-3 12 0l55 56c0-1 0-2 1-3 1-6 2-13 9-20 7-7 14-8 20-9 4-1 7-1 10-5 4-4 4-6 5-10 1-6 2-13 9-20 7-7 14-8 20-9 1 0 2 0 3-1l-141-141c-10-11-23-17-39-17-14 0-28 6-38 17-22 21-22 55 0 76l63 64c3 3 3 8 0 11-3 3-8 3-11 0l-64-62c-27-28-27-73 0-101 14-13 31-20 50-20 19 0 37 7 51 20l148 149c5 5 3 10 1 12z"/>
<glyph glyph-name="icon-4" unicode="i" d="M499 245c-2 14-9 28-19 39-9 10-22 17-35 20l-1 0-31 29c-18 18-42 27-67 27l-58 0c-32 0-64-7-92-21-1-1-2-2-3-3 0-2 0-4 0-5 1-2 4-3 7-2 27 14 57 21 88 21l40 0 8-50-199-8 36 21c1 1 2 2 2 3 0 1 0 3 0 4-1 1-2 2-3 2-1 0-3 0-4 0l-54-30-26-1c-8 0-15-2-24-5-15-7-27-18-35-32-2-3-3-6-4-9-2-4-3-9-5-14 0-3-1-5-3-7l-6-18c-2-6-1-12 3-17 5-5 10-8 17-8l30 0 1-2c7-18 25-29 44-29 20 0 36 11 44 29l1 2 233 0 1-2c8-18 25-29 44-29 20 0 36 11 44 29l1 2 22 0c3 0 5 2 5 5l0 49c-2 4-2 7-2 10z m-36 41l5-4c10-8 17-19 20-32l1-4-4 1c-12 2-21 13-21 25l0 14z m-117 65c22 0 44-8 60-25l23-22-84-3-7 49 8 0z m-310-106c1 1 1 2 1 3 5 9 12 17 20 23l4 3 0-7c0-13-10-24-23-25l-4 0z m102-67c-4-6-9-10-16-13-5-2-10-3-15-3-8 0-16 3-22 7-7 5-11 13-13 21-2 3-2 6-2 9 0 20 17 38 38 38 21 0 38-18 38-38-1-8-4-15-8-21z m16 14l0 3c0 1 0 3 0 4 0 25-21 47-47 47-25 0-47-22-47-47 0-1 0-3 0-4l0-3-27 0c-3 0-6 1-8 4-2 3-2 5-1 9l8 27 2 0c20-1 39 15 39 35l0 10 2 1c5 2 10 2 15 3l75 4 0-4c-3-15-7-56 6-85l1-4z m29 0l-1 1c-17 28-12 72-9 89l0 3 163 6 0-3c1-17 1-55-19-79-9-11-22-17-39-18l-95 0z m283 5c-1-10-5-18-12-25-7-6-16-10-26-10-20 0-37 18-37 38 0 20 16 38 37 38 21 0 38-18 38-38 0-2 0-3 0-3z m23-5l-13 0 0 3c1 12-3 25-11 34-8 11-20 16-33 17l-2 0c-26 0-47-22-47-47 0-1 0-3 0-4l0-3-69 0 5 4c3 2 5 5 7 7 22 26 22 68 22 85l0 3 94 4c4-1 8-2 12-3l2-1 0-2c-1-2-1-5-1-9l0-8c0-19 15-34 33-35l2 0 0-45z m-170 79c0-3-2-5-5-5l-28 0c-3 0-6 2-6 5 0 3 3 5 6 5l28 0c3 0 5-2 5-5z m110-51c-12 0-21-9-21-21 0-12 9-21 21-21 13 0 22 10 22 21 0 12-11 21-22 21z m0-33c-6 0-11 5-11 11 0 6 5 11 11 11 6 0 11-5 11-11 0-6-5-11-11-11z m-322 33c-12 0-21-9-21-21 0-12 10-21 21-21 12 0 22 10 22 21 0 12-10 21-22 21z m0-33c-6 0-11 5-11 11 0 6 5 11 11 11 6 0 11-5 11-11 0-6-5-11-11-11z"/>
<glyph glyph-name="dashboard" unicode="h" d="M256 280c-31 0-56-25-56-56 0-31 25-56 56-56 31 0 56 25 56 56 0 4-1 8-2 12 41 48 104 122 138 164 12 14-1 28-16 16-43-35-116-97-163-138-4 1-9 2-13 2z m16 104c0 9-7 16-16 16-9 0-16-7-16-16 0-9 7-16 16-16 9 0 16 7 16 16z m96-128c0-9 7-16 16-16 9 0 16 7 16 16 0 9-7 16-16 16-9 0-16-7-16-16z m-176 128c-9 0-16-7-16-16 0-9 7-16 16-16 9 0 16 7 16 16 0 9-7 16-16 16z m-32-64c0 9-7 16-16 16-9 0-16-7-16-16 0-9 7-16 16-16 9 0 16 7 16 16z m-48-64c0-9 7-16 16-16 9 0 16 7 16 16 0 9-7 16-16 16-9 0-16-7-16-16z m224 112c0 9-7 16-16 16-9 0-16-7-16-16 0-9 7-16 16-16 9 0 16 7 16 16z m108-24l-34-45c4-14 6-28 6-43 0-88-72-160-160-160-88 0-160 72-160 160 0 88 72 160 160 160 33 0 64-10 89-27l40 30c-36 28-80 45-129 45-115 0-208-93-208-208 0-115 93-208 208-208 115 0 208 93 208 208 0 31-7 61-20 88z"/>
<glyph glyph-name="certi" unicode="l" d="M73 23c0 155 0 311 0 466 0 1 0 2 0 2 2 8 8 12 17 12 111 0 221 0 332 0 1 0 1 0 2 0 3 0 6-1 9-3 4-3 6-8 6-14 0-127 0-254 0-381 0-7-2-12-7-17-27-24-54-48-81-72-4-3-7-6-12-7-84 0-168 0-253 0 0 0-1 0-2 0-5 2-9 6-11 11 0 1 0 2 0 3z m300 448c0-62 0-124 0-186-14 18-27 36-41 54-14-18-27-36-41-53 0 0 0 0 0 0 0 61 0 123 0 185-62 0-124 0-186 0 0-144 0-287 0-430 76 0 151 0 227 0 0 24 0 47 0 70 25 0 50 0 75 0 0 120 0 240 0 360-11 0-22 0-34 0z m-41-236c0-10 0-20 0-30-56 0-112 0-168 0 0 10 0 20 0 30 56 0 112 0 168 0z m-168-110c0 10 0 20 0 30 56 0 112 0 168 0 0-10 0-20 0-30-56 0-112 0-168 0z"/>
<glyph glyph-name="company" unicode="m" d="M182 504c41 0 81 0 122 0 0 0 1 0 1 0 14-3 22-13 22-28 0-29 0-57 0-86 0-1 0-2 0-3 1 0 1 0 1 0 1 1 1 1 2 1 9 5 19 9 30 10 1 0 3 0 5 0 37 0 74 0 111 0 12 0 21-5 26-16 1-2 1-5 2-7 0-114 0-229 0-343-1-2-1-4-2-6-3-10-13-17-25-17-22 0-45 0-68 0-65 0-130 0-194 0-4 0-7 0-11 1-11 4-18 14-18 26 0 25 0 51 0 76 0 1 0 2 0 3-2 0-3 0-4 0-48 0-97 0-145 0-2 0-5 0-7 1-12 2-21 13-21 26 0 61 0 122 0 183 0 19 7 35 20 49 36 36 72 72 108 108 11 10 23 17 36 20 3 1 6 1 9 2z m39-459c83 0 165 0 247 0 0 106 0 211 0 317-35 0-70 0-105 0 0-1 0-2 0-3 0-15 0-31 0-46 0-22 0-43 0-65 0-6-2-11-5-16-6-7-14-11-23-11-37 0-74 0-110 0-1 0-2 0-4 0 0-59 0-118 0-176z m-176 106c47 0 94 0 141 0 0 1 0 2 0 3 0 21 0 43 0 64 0 20 7 36 21 50 27 28 55 56 83 84 1 1 2 2 2 4 0 37 0 73 0 109 0 1 0 2 0 3-36 0-71 0-106 0 0-1 0-2 0-3 0-37 0-74 0-111 0-3-1-7-2-10-4-11-14-17-25-17-37 0-74 0-111 0-1 0-2 0-3 0 0-59 0-118 0-176z m105 293c-26-27-54-55-80-81 26 0 53 0 80 0 0 27 0 54 0 81z m177-187c0 27 0 54 0 80-27-26-54-54-81-80 27 0 54 0 81 0z"/>
<glyph glyph-name="img" unicode="O" d="M505 418c0-108 0-216 0-324 0 0-1-1-1-1-2-16-15-30-30-34-2-1-4-1-5-1-142 0-284 0-426 0 0 0 0 0-1 0-16 3-30 15-34 31 0 2 0 4-1 5 0 108 0 216 0 324 0 0 1 1 1 1 2 16 15 30 30 34 2 1 4 1 5 1 142 0 284 0 426 0 0 0 0 0 1 0 16-3 30-15 34-31 0-2 0-4 1-5z m-249-327c68 0 137 0 205 0 2 0 3 0 4 0 4 1 6 4 7 7 0 1 0 2 0 3 0 103 0 207 0 310 0 1 0 2 0 3-1 3-3 6-7 7-1 0-2 0-4 0-137 0-273 0-410 0-2 0-3 0-4 0-4-1-6-3-6-6-1-1-1-3-1-4 0-103 0-207 0-310 0-1 0-2 0-3 1-3 3-6 7-7 1 0 2 0 4 0 68 0 137 0 205 0z m74 257c2-2 2-2 3-3 34-35 69-69 103-103 2-2 3-4 3-6 0-36 0-72 0-109 0-1 0-2 0-3-122 0-244 0-365 0 0 1-1 2-1 3 0 14 0 29 1 44 0 1 0 3 1 4 27 26 54 53 81 80 0 0 0 1 0 1 14-14 28-28 42-42 44 45 88 89 132 134z m-157-9c0-28-22-50-50-50-28 0-50 22-50 50 1 28 23 49 50 49 28 0 50-22 50-49z"/>
<glyph glyph-name="produ" unicode="P" d="M292 503c1-1 2-2 3-4 12-37 24-74 36-111 2-4 1-6-4-7-37-13-75-26-113-38-5-2-6-1-8 4-12 37-24 73-36 110-1 4 0 6 4 8 15 5 30 10 45 15 1 0 1 0 2 0 5-14 9-28 14-42 6 2 13 4 19 6-5 14-9 28-14 42 1 1 2 1 2 1 15 5 30 10 45 15 1 0 1 1 2 1 1 0 2 0 3 0z m179-351c0 0 0 0 0-1-2-5-5-8-10-10-54-18-108-36-162-54-1 0-2 0-2-1-3 10-8 18-14 26 0 0 1 0 2 1 55 18 111 37 167 55 9 3 15 0 19-10 0-2 0-4 0-6z m-69 237c4 0 7-2 8-6 4-12 8-24 12-36 15-46 30-92 45-138 2-6 0-9-5-11-60-20-120-40-180-60-5-2-8 0-10 5-19 58-38 116-57 175-2 5-1 9 5 11 60 19 120 39 180 59 1 1 2 1 2 1z m-78-73c-10-22-20-43-30-65 7-3 13-6 20-9 4 9 8 18 13 28 7-24 15-47 23-70 7 2 14 4 22 7-8 23-16 47-23 70 9-5 18-10 26-15 4 7 7 13 11 19-21 12-41 23-62 35z m-76-182c-11 2-20 2-31 1 0 2-1 5-2 7-33 100-65 200-98 300-4 11-14 18-25 17-11-1-21-9-23-20 0-4 0-9 1-13 3-9-4-18-14-18-6 0-11 4-13 10-10 29 8 62 40 69 27 5 52-10 61-36 34-105 69-210 103-315 0-1 0-1 1-2z m-18-125c-31 0-56 25-56 56 0 31 25 57 56 57 31-1 56-26 56-57 0-31-25-56-56-56z m0 28c16 0 28 13 28 29 0 15-13 28-29 27-15 0-27-13-27-28 0-16 13-28 28-28z"/>
<glyph glyph-name="requests" unicode="Q" d="M147 400l-85 0c-6 0-12 3-14 9-2 5-1 12 3 16l86 83c4 4 10 5 16 3 5-2 9-8 9-14l0-83c0-8-7-14-15-14z m-49 29l34 0 0 33z m352-237c-8 0-14 7-14 15l0 269c0 3-4 6-8 6l-212 0c-9 0-15 7-15 15 0 8 6 15 15 15l212 0c21 0 37-16 37-36l0-269c0-8-7-15-15-15z m-22-192l-344 0c-21 0-37 16-37 36l0 378c0 4 2 8 4 11l86 83c6 6 15 5 21 0 5-6 5-16-1-21l-81-79 0-372c0-3 4-6 8-6l344 0c4 0 8 3 8 6l0 93c0 8 6 15 14 15 8 0 15-7 15-15l0-93c0-20-16-36-37-36z m22 400l-234 0c-9 0-15 6-15 14 0 9 6 15 15 15l220 0 0 43c0 6-5 10-11 10l-209 0c-9 0-15 7-15 15 0 8 6 15 15 15l209 0c22 0 40-18 40-40l0-58c0-8-7-14-15-14z m-114-153c-4 0-8 1-11 4l-23 24c-6 6-6 15 0 21 5 6 15 6 20 0l14-13 46 46c5 5 15 5 21 0 5-6 5-16 0-21l-57-57c-3-3-6-4-10-4z m0-157c-4 0-8 2-11 5l-23 23c-6 6-6 15 0 21 5 6 15 6 20 0l14-13 46 46c5 6 15 6 21 0 5-6 5-15 0-21l-57-56c-3-3-6-5-10-5z"/>
</font>
</defs>
</svg>
